# File produced by Open Asset Import Library (http://www.assimp.sf.net)
# (assimp v6.0.0)

mtllib bar_table.mtl

# 1086 vertex positions
v 2.10649633 -29.0197067 -1.2684917e-06
v 1.82427943 -29.0197067 -1.05324948
v 1.82427943 13.8648148 -1.05324996
v 1.82427943 13.8648148 -1.05324996
v 2.1064961 13.8648148 -1.44333762e-06
v 2.10649633 -29.0197067 -1.2684917e-06
v 1.82427943 -29.0197067 -1.05324948
v 1.05324805 -29.0197067 -1.82428074
v 1.05324793 13.8648148 -1.82428086
v 1.05324793 13.8648148 -1.82428086
v 1.82427943 13.8648148 -1.05324996
v 1.82427943 -29.0197067 -1.05324948
v 1.05324805 -29.0197067 -1.82428074
v -9.2077876e-08 -29.0197067 -2.10649753
v -9.20779257e-08 13.8648148 -2.10649776
v -9.20779257e-08 13.8648148 -2.10649776
v 1.05324793 13.8648148 -1.82428086
v 1.05324805 -29.0197067 -1.82428074
v -9.2077876e-08 -29.0197067 -2.10649753
v -1.05324829 -29.0197067 -1.82428074
v -1.05324852 13.8648148 -1.82428086
v -1.05324852 13.8648148 -1.82428086
v -9.20779257e-08 13.8648148 -2.10649776
v -9.2077876e-08 -29.0197067 -2.10649753
v -1.05324829 -29.0197067 -1.82428074
v -1.82427943 -29.0197067 -1.0532496
v -1.82427979 13.8648148 -1.05324972
v -1.82427979 13.8648148 -1.05324972
v -1.05324852 13.8648148 -1.82428086
v -1.05324829 -29.0197067 -1.82428074
v -1.82427943 -29.0197067 -1.0532496
v -2.10649633 -29.0197067 -1.58656383e-06
v -2.10649657 13.8648148 -1.76140964e-06
v -2.10649657 13.8648148 -1.76140964e-06
v -1.82427979 13.8648148 -1.05324972
v -1.82427943 -29.0197067 -1.0532496
v -2.10649633 -29.0197067 -1.58656383e-06
v -1.82427967 -29.0197067 1.05324638
v -1.82427979 13.8648148 1.05324638
v -1.82427979 13.8648148 1.05324638
v -2.10649657 13.8648148 -1.76140964e-06
v -2.10649633 -29.0197067 -1.58656383e-06
v -1.82427967 -29.0197067 1.05324638
v -1.05324876 -29.0197067 1.82427776
v -1.05324864 13.8648148 1.824278
v -1.05324864 13.8648148 1.824278
v -1.82427979 13.8648148 1.05324638
v -1.82427967 -29.0197067 1.05324638
v -1.05324876 -29.0197067 1.82427776
v -9.7933605e-07 -29.0197067 2.10649514
v -9.79336164e-07 13.8648148 2.10649514
v -9.79336164e-07 13.8648148 2.10649514
v -1.05324864 13.8648148 1.824278
v -1.05324876 -29.0197067 1.82427776
v -9.7933605e-07 -29.0197067 2.10649514
v 1.05324709 -29.0197067 1.82427871
v 1.05324721 13.8648148 1.82427895
v 1.05324721 13.8648148 1.82427895
v -9.79336164e-07 13.8648148 2.10649514
v -9.7933605e-07 -29.0197067 2.10649514
v 1.05324709 -29.0197067 1.82427871
v 1.82427859 -29.0197067 1.05324817
v 1.82427859 13.8648148 1.05324793
v 1.82427859 13.8648148 1.05324793
v 1.05324721 13.8648148 1.82427895
v 1.05324709 -29.0197067 1.82427871
v 1.82427859 -29.0197067 1.05324817
v 2.10649633 -29.0197067 -1.2684917e-06
v 2.1064961 13.8648148 -1.44333762e-06
v 2.1064961 13.8648148 -1.44333762e-06
v 1.82427859 13.8648148 1.05324793
v 1.82427859 -29.0197067 1.05324817
v -2.38093209 13.8280411 2.43411279
v -2.38093209 13.8280411 -2.38945842
v 2.42163205 13.8280411 -2.38945842
v 2.42163205 13.8280411 -2.38945842
v 2.42163205 13.8280411 2.43411279
v -2.38093209 13.8280411 2.43411279
v -5.063447 15.5933342 5.11662817
v 5.10414696 15.5933342 5.11662817
v 5.10414696 16.0648232 5.11662817
v 5.10414696 16.0648232 5.11662817
v -5.063447 16.0648232 5.11662817
v -5.063447 15.5933342 5.11662817
v 5.10414696 15.5933342 5.11662817
v 5.10414696 15.5933342 -5.0719738
v 5.10414696 16.0648232 -5.0719738
v 5.10414696 16.0648232 -5.0719738
v 5.10414696 16.0648232 5.11662817
v 5.10414696 15.5933342 5.11662817
v 5.10414696 15.5933342 -5.0719738
v -5.063447 15.5933342 -5.0719738
v -5.063447 16.0648232 -5.0719738
v -5.063447 16.0648232 -5.0719738
v 5.10414696 16.0648232 -5.0719738
v 5.10414696 15.5933342 -5.0719738
v -5.063447 15.5933342 -5.0719738
v -5.063447 15.5933342 5.11662817
v -5.063447 16.0648232 5.11662817
v -5.063447 16.0648232 5.11662817
v -5.063447 16.0648232 -5.0719738
v -5.063447 15.5933342 -5.0719738
v -5.063447 15.5933342 5.11662817
v -5.063447 15.5933342 -5.0719738
v -3.68080163 15.5933342 -3.68932819
v -3.68080163 15.5933342 -3.68932819
v -3.68080163 15.5933342 3.73398304
v -5.063447 15.5933342 5.11662817
v -5.063447 15.5933342 -5.0719738
v 5.10414696 15.5933342 -5.0719738
v 3.72150159 15.5933342 -3.68932819
v 3.72150159 15.5933342 -3.68932819
v -3.68080163 15.5933342 -3.68932819
v -5.063447 15.5933342 -5.0719738
v 5.10414696 15.5933342 -5.0719738
v 5.10414696 15.5933342 5.11662817
v 3.72150159 15.5933342 3.73398304
v 3.72150159 15.5933342 3.73398304
v 3.72150159 15.5933342 -3.68932819
v 5.10414696 15.5933342 -5.0719738
v 5.10414696 15.5933342 5.11662817
v -5.063447 15.5933342 5.11662817
v -3.68080163 15.5933342 3.73398304
v -3.68080163 15.5933342 3.73398304
v 3.72150159 15.5933342 3.73398304
v 5.10414696 15.5933342 5.11662817
v -3.68080163 15.5933342 3.73398304
v -3.68080163 15.5933342 -3.68932819
v -2.38093209 13.8280411 -2.38945842
v -2.38093209 13.8280411 -2.38945842
v -2.38093209 13.8280411 2.43411279
v -3.68080163 15.5933342 3.73398304
v -3.68080163 15.5933342 -3.68932819
v 3.72150159 15.5933342 -3.68932819
v 2.42163205 13.8280411 -2.38945842
v 2.42163205 13.8280411 -2.38945842
v -2.38093209 13.8280411 -2.38945842
v -3.68080163 15.5933342 -3.68932819
v 3.72150159 15.5933342 -3.68932819
v 3.72150159 15.5933342 3.73398304
v 2.42163205 13.8280411 2.43411279
v 2.42163205 13.8280411 2.43411279
v 2.42163205 13.8280411 -2.38945842
v 3.72150159 15.5933342 -3.68932819
v 3.72150159 15.5933342 3.73398304
v -3.68080163 15.5933342 3.73398304
v -2.38093209 13.8280411 2.43411279
v -2.38093209 13.8280411 2.43411279
v 2.42163205 13.8280411 2.43411279
v 3.72150159 15.5933342 3.73398304
v 22.0000019 16 -1.26915461e-06
v 21.5772781 16 -4.29198885
v 21.5772781 18 -4.29198885
v 21.5772781 18 -4.29198885
v 22.0000019 18 -1.3565774e-06
v 22.0000019 16 -1.26915461e-06
v 21.5772781 16 -4.29198885
v 20.3253517 16 -8.41903687
v 20.3253517 18 -8.41903687
v 20.3253517 18 -8.41903687
v 21.5772781 18 -4.29198885
v 21.5772781 16 -4.29198885
v 20.3253517 16 -8.41903687
v 18.2923317 16 -12.2225475
v 18.2923317 18 -12.2225475
v 18.2923317 18 -12.2225475
v 20.3253517 18 -8.41903687
v 20.3253517 16 -8.41903687
v 18.2923317 16 -12.2225475
v 15.5563507 16 -15.5563507
v 15.5563507 18 -15.5563507
v 15.5563507 18 -15.5563507
v 18.2923317 18 -12.2225475
v 18.2923317 16 -12.2225475
v 15.5563507 16 -15.5563507
v 12.2225447 16 -18.2923336
v 12.2225447 18 -18.2923336
v 12.2225447 18 -18.2923336
v 15.5563507 18 -15.5563507
v 15.5563507 16 -15.5563507
v 12.2225447 16 -18.2923336
v 8.41903687 16 -20.3253517
v 8.41903687 18 -20.3253517
v 8.41903687 18 -20.3253517
v 12.2225447 18 -18.2923336
v 12.2225447 16 -18.2923336
v 8.41903687 16 -20.3253517
v 4.29198837 16 -21.5772781
v 4.29198837 18 -21.5772781
v 4.29198837 18 -21.5772781
v 8.41903687 18 -20.3253517
v 8.41903687 16 -20.3253517
v 4.29198837 16 -21.5772781
v 1.66069231e-06 16 -22.0000019
v 1.66069231e-06 18 -22.0000019
v 1.66069231e-06 18 -22.0000019
v 4.29198837 18 -21.5772781
v 4.29198837 16 -21.5772781
v 1.66069231e-06 16 -22.0000019
v -4.29198456 16 -21.5772781
v -4.29198456 18 -21.5772781
v -4.29198456 18 -21.5772781
v 1.66069231e-06 18 -22.0000019
v 1.66069231e-06 16 -22.0000019
v -4.29198456 16 -21.5772781
v -8.41903305 16 -20.3253517
v -8.41903305 18 -20.3253517
v -8.41903305 18 -20.3253517
v -4.29198456 18 -21.5772781
v -4.29198456 16 -21.5772781
v -8.41903305 16 -20.3253517
v -12.2225447 16 -18.2923336
v -12.2225447 18 -18.2923336
v -12.2225447 18 -18.2923336
v -8.41903305 18 -20.3253517
v -8.41903305 16 -20.3253517
v -12.2225447 16 -18.2923336
v -15.5563478 16 -15.5563507
v -15.5563478 18 -15.5563507
v -15.5563478 18 -15.5563507
v -12.2225447 18 -18.2923336
v -12.2225447 16 -18.2923336
v -15.5563478 16 -15.5563507
v -18.2923317 16 -12.2225447
v -18.2923317 18 -12.2225447
v -18.2923317 18 -12.2225447
v -15.5563478 18 -15.5563507
v -15.5563478 16 -15.5563507
v -18.2923317 16 -12.2225447
v -20.3253517 16 -8.41903305
v -20.3253517 18 -8.41903305
v -20.3253517 18 -8.41903305
v -18.2923317 18 -12.2225447
v -18.2923317 16 -12.2225447
v -20.3253517 16 -8.41903305
v -21.5772762 16 -4.29198313
v -21.5772762 18 -4.29198313
v -21.5772762 18 -4.29198313
v -20.3253517 18 -8.41903305
v -20.3253517 16 -8.41903305
v -21.5772762 16 -4.29198313
v -22 16 5.90125364e-06
v -22 18 5.81383074e-06
v -22 18 5.81383074e-06
v -21.5772762 18 -4.29198313
v -21.5772762 16 -4.29198313
v -22 16 5.90125364e-06
v -21.5772743 16 4.29199457
v -21.5772743 18 4.29199457
v -21.5772743 18 4.29199457
v -22 18 5.81383074e-06
v -22 16 5.90125364e-06
v -21.5772743 16 4.29199457
v -20.325346 16 8.41904545
v -20.325346 18 8.41904545
v -20.325346 18 8.41904545
v -21.5772743 18 4.29199457
v -21.5772743 16 4.29199457
v -20.325346 16 8.41904545
v -18.2923241 16 12.2225552
v -18.2923241 18 12.2225552
v -18.2923241 18 12.2225552
v -20.325346 18 8.41904545
v -20.325346 16 8.41904545
v -18.2923241 16 12.2225552
v -15.5563383 16 15.5563593
v -15.5563383 18 15.5563593
v -15.5563383 18 15.5563593
v -18.2923241 18 12.2225552
v -18.2923241 16 12.2225552
v -15.5563383 16 15.5563593
v -12.2225313 16 18.2923393
v -12.2225313 18 18.2923393
v -12.2225313 18 18.2923393
v -15.5563383 18 15.5563593
v -15.5563383 16 15.5563593
v -12.2225313 16 18.2923393
v -8.4190197 16 20.3253574
v -8.4190197 18 20.3253574
v -8.4190197 18 20.3253574
v -12.2225313 18 18.2923393
v -12.2225313 16 18.2923393
v -8.4190197 16 20.3253574
v -4.29196882 16 21.57728
v -4.29196882 18 21.57728
v -4.29196882 18 21.57728
v -8.4190197 18 20.3253574
v -8.4190197 16 20.3253574
v -4.29196882 16 21.57728
v 2.12428295e-05 16 22
v 2.12428295e-05 18 22
v 2.12428295e-05 18 22
v -4.29196882 18 21.57728
v -4.29196882 16 21.57728
v 2.12428295e-05 16 22
v 4.29200983 16 21.5772724
v 4.29200983 18 21.5772724
v 4.29200983 18 21.5772724
v 2.12428295e-05 18 22
v 2.12428295e-05 16 22
v 4.29200983 16 21.5772724
v 8.41905785 16 20.3253403
v 8.41905785 18 20.3253403
v 8.41905785 18 20.3253403
v 4.29200983 18 21.5772724
v 4.29200983 16 21.5772724
v 8.41905785 16 20.3253403
v 12.2225676 16 18.2923164
v 12.2225676 18 18.2923164
v 12.2225676 18 18.2923164
v 8.41905785 18 20.3253403
v 8.41905785 16 20.3253403
v 12.2225676 16 18.2923164
v 15.5563698 16 15.5563297
v 15.5563698 18 15.5563297
v 15.5563698 18 15.5563297
v 12.2225676 18 18.2923164
v 12.2225676 16 18.2923164
v 15.5563698 16 15.5563297
v 18.2923489 16 12.2225199
v 18.2923489 18 12.2225199
v 18.2923489 18 12.2225199
v 15.5563698 18 15.5563297
v 15.5563698 16 15.5563297
v 18.2923489 16 12.2225199
v 20.3253651 16 8.41900539
v 20.3253651 18 8.41900539
v 20.3253651 18 8.41900539
v 18.2923489 18 12.2225199
v 18.2923489 16 12.2225199
v 20.3253651 16 8.41900539
v 21.5772839 16 4.29195261
v 21.5772839 18 4.29195261
v 21.5772839 18 4.29195261
v 20.3253651 18 8.41900539
v 20.3253651 16 8.41900539
v 21.5772839 16 4.29195261
v 22.0000019 16 -1.26915461e-06
v 22.0000019 18 -1.3565774e-06
v 22.0000019 18 -1.3565774e-06
v 21.5772839 18 4.29195261
v 21.5772839 16 4.29195261
v 20.3253651 16 8.41900539
v 18.2923489 16 12.2225199
v 15.5563698 16 15.5563297
v 15.5563698 16 15.5563297
v 12.2225676 16 18.2923164
v 8.41905785 16 20.3253403
v 8.41905785 16 20.3253403
v 4.29200983 16 21.5772724
v 2.12428295e-05 16 22
v 15.5563698 16 15.5563297
v 8.41905785 16 20.3253403
v 2.12428295e-05 16 22
v 2.12428295e-05 16 22
v -4.29196882 16 21.57728
v -8.4190197 16 20.3253574
v -8.4190197 16 20.3253574
v -12.2225313 16 18.2923393
v -15.5563383 16 15.5563593
v 2.12428295e-05 16 22
v -8.4190197 16 20.3253574
v -15.5563383 16 15.5563593
v -15.5563383 16 15.5563593
v -18.2923241 16 12.2225552
v -20.325346 16 8.41904545
v -20.325346 16 8.41904545
v -21.5772743 16 4.29199457
v -22 16 5.90125364e-06
v -15.5563383 16 15.5563593
v -20.325346 16 8.41904545
v -22 16 5.90125364e-06
v 2.12428295e-05 16 22
v -15.5563383 16 15.5563593
v -22 16 5.90125364e-06
v -22 16 5.90125364e-06
v -21.5772762 16 -4.29198313
v -20.3253517 16 -8.41903305
v -20.3253517 16 -8.41903305
v -18.2923317 16 -12.2225447
v -15.5563478 16 -15.5563507
v -22 16 5.90125364e-06
v -20.3253517 16 -8.41903305
v -15.5563478 16 -15.5563507
v -15.5563478 16 -15.5563507
v -12.2225447 16 -18.2923336
v -8.41903305 16 -20.3253517
v -8.41903305 16 -20.3253517
v -4.29198456 16 -21.5772781
v 1.66069231e-06 16 -22.0000019
v -15.5563478 16 -15.5563507
v -8.41903305 16 -20.3253517
v 1.66069231e-06 16 -22.0000019
v -22 16 5.90125364e-06
v -15.5563478 16 -15.5563507
v 1.66069231e-06 16 -22.0000019
v 1.66069231e-06 16 -22.0000019
v 4.29198837 16 -21.5772781
v 8.41903687 16 -20.3253517
v 8.41903687 16 -20.3253517
v 12.2225447 16 -18.2923336
v 15.5563507 16 -15.5563507
v 1.66069231e-06 16 -22.0000019
v 8.41903687 16 -20.3253517
v 15.5563507 16 -15.5563507
v 15.5563507 16 -15.5563507
v 18.2923317 16 -12.2225475
v 20.3253517 16 -8.41903687
v 20.3253517 16 -8.41903687
v 21.5772781 16 -4.29198885
v 22.0000019 16 -1.26915461e-06
v 15.5563507 16 -15.5563507
v 20.3253517 16 -8.41903687
v 22.0000019 16 -1.26915461e-06
v 1.66069231e-06 16 -22.0000019
v 15.5563507 16 -15.5563507
v 22.0000019 16 -1.26915461e-06
v -22 16 5.90125364e-06
v 1.66069231e-06 16 -22.0000019
v 22.0000019 16 -1.26915461e-06
v 2.12428295e-05 16 22
v -22 16 5.90125364e-06
v 22.0000019 16 -1.26915461e-06
v 15.5563698 16 15.5563297
v 2.12428295e-05 16 22
v 22.0000019 16 -1.26915461e-06
v 20.3253651 16 8.41900539
v 15.5563698 16 15.5563297
v 22.0000019 16 -1.26915461e-06
v 21.5772839 16 4.29195261
v 20.3253651 16 8.41900539
v 22.0000019 16 -1.26915461e-06
v 21.5772781 18 -4.29198885
v 20.3253517 18 -8.41903687
v 18.2923317 18 -12.2225475
v 18.2923317 18 -12.2225475
v 15.5563507 18 -15.5563507
v 12.2225447 18 -18.2923336
v 12.2225447 18 -18.2923336
v 8.41903687 18 -20.3253517
v 4.29198837 18 -21.5772781
v 18.2923317 18 -12.2225475
v 12.2225447 18 -18.2923336
v 4.29198837 18 -21.5772781
v 4.29198837 18 -21.5772781
v 1.66069231e-06 18 -22.0000019
v -4.29198456 18 -21.5772781
v -4.29198456 18 -21.5772781
v -8.41903305 18 -20.3253517
v -12.2225447 18 -18.2923336
v 4.29198837 18 -21.5772781
v -4.29198456 18 -21.5772781
v -12.2225447 18 -18.2923336
v -12.2225447 18 -18.2923336
v -15.5563478 18 -15.5563507
v -18.2923317 18 -12.2225447
v -18.2923317 18 -12.2225447
v -20.3253517 18 -8.41903305
v -21.5772762 18 -4.29198313
v -12.2225447 18 -18.2923336
v -18.2923317 18 -12.2225447
v -21.5772762 18 -4.29198313
v 4.29198837 18 -21.5772781
v -12.2225447 18 -18.2923336
v -21.5772762 18 -4.29198313
v -21.5772762 18 -4.29198313
v -22 18 5.81383074e-06
v -21.5772743 18 4.29199457
v -21.5772743 18 4.29199457
v -20.325346 18 8.41904545
v -18.2923241 18 12.2225552
v -21.5772762 18 -4.29198313
v -21.5772743 18 4.29199457
v -18.2923241 18 12.2225552
v -18.2923241 18 12.2225552
v -15.5563383 18 15.5563593
v -12.2225313 18 18.2923393
v -12.2225313 18 18.2923393
v -8.4190197 18 20.3253574
v -4.29196882 18 21.57728
v -18.2923241 18 12.2225552
v -12.2225313 18 18.2923393
v -4.29196882 18 21.57728
v -21.5772762 18 -4.29198313
v -18.2923241 18 12.2225552
v -4.29196882 18 21.57728
v -4.29196882 18 21.57728
v 2.12428295e-05 18 22
v 4.29200983 18 21.5772724
v 4.29200983 18 21.5772724
v 8.41905785 18 20.3253403
v 12.2225676 18 18.2923164
v -4.29196882 18 21.57728
v 4.29200983 18 21.5772724
v 12.2225676 18 18.2923164
v 12.2225676 18 18.2923164
v 15.5563698 18 15.5563297
v 18.2923489 18 12.2225199
v 18.2923489 18 12.2225199
v 20.3253651 18 8.41900539
v 21.5772839 18 4.29195261
v 12.2225676 18 18.2923164
v 18.2923489 18 12.2225199
v 21.5772839 18 4.29195261
v -4.29196882 18 21.57728
v 12.2225676 18 18.2923164
v 21.5772839 18 4.29195261
v -21.5772762 18 -4.29198313
v -4.29196882 18 21.57728
v 21.5772839 18 4.29195261
v 4.29198837 18 -21.5772781
v -21.5772762 18 -4.29198313
v 21.5772839 18 4.29195261
v 18.2923317 18 -12.2225475
v 4.29198837 18 -21.5772781
v 21.5772839 18 4.29195261
v 21.5772781 18 -4.29198885
v 18.2923317 18 -12.2225475
v 21.5772839 18 4.29195261
v 22.0000019 18 -1.3565774e-06
v 21.5772781 18 -4.29198885
v 21.5772839 18 4.29195261
v 2.31618142 -31.2387543 -2.31618357
v 2.31618142 -29.1505737 -2.31618357
v 3.53316426 -29.1505737 -1.46348643
v 3.53316426 -29.1505737 -1.46348643
v 3.53316426 -31.2387543 -1.46348631
v 2.31618142 -31.2387543 -2.31618357
v 1.46348321 -31.2387543 -17.0850315
v -1.46348619 -31.2387543 -17.0850315
v -1.46348619 -29.1505737 -17.0850315
v -1.46348619 -29.1505737 -17.0850315
v 1.46348321 -29.1505737 -17.0850315
v 1.46348321 -31.2387543 -17.0850315
v -2.31618237 -31.2387543 -2.31618285
v -2.31618237 -29.1505737 -2.31618285
v -1.46348512 -29.1505737 -3.53316545
v -1.46348512 -29.1505737 -3.53316545
v -1.46348512 -31.2387543 -3.53316545
v -2.31618237 -31.2387543 -2.31618285
v -17.0850277 -31.2387543 -1.46348345
v -17.0850277 -31.2387543 1.46348619
v -17.0850277 -29.1505737 1.46348608
v -17.0850277 -29.1505737 1.46348608
v -17.0850277 -29.1505737 -1.46348357
v -17.0850277 -31.2387543 -1.46348345
v -2.31618142 -31.2387543 2.31618094
v -2.31618142 -29.1505737 2.31618094
v -3.53316426 -29.1505737 1.46348381
v -3.53316426 -29.1505737 1.46348381
v -3.53316426 -31.2387543 1.46348393
v -2.31618142 -31.2387543 2.31618094
v -1.46348143 -31.2387543 17.0850258
v 1.46348727 -31.2387543 17.0850258
v 1.46348703 -29.1505737 17.0850258
v 1.46348703 -29.1505737 17.0850258
v -1.46348155 -29.1505737 17.0850258
v -1.46348143 -31.2387543 17.0850258
v 2.31618237 -31.2387543 2.31618071
v 2.3161819 -29.1505737 2.31618071
v 1.46348476 -29.1505737 3.53316307
v 1.46348476 -29.1505737 3.53316307
v 1.46348488 -31.2387543 3.53316307
v 2.31618237 -31.2387543 2.31618071
v 17.0850296 -31.2387543 1.46348131
v 17.0850296 -31.2387543 -1.46348858
v 17.0850296 -29.1505737 -1.4634887
v 17.0850296 -29.1505737 -1.4634887
v 17.0850296 -29.1505737 1.46348119
v 17.0850296 -31.2387543 1.46348131
v 2.31618237 -31.2387543 2.31618071
v -2.31618142 -31.2387543 2.31618094
v -2.31618237 -31.2387543 -2.31618285
v -2.31618237 -31.2387543 -2.31618285
v 2.31618142 -31.2387543 -2.31618357
v 2.31618237 -31.2387543 2.31618071
v 1.77928257 -28.999176 -1.77928436
v -1.77928281 -28.999176 -1.77928412
v -1.77928221 -28.999176 1.77928174
v -1.77928221 -28.999176 1.77928174
v 1.77928281 -28.999176 1.77928126
v 1.77928257 -28.999176 -1.77928436
v 2.31618142 -29.1505737 -2.31618357
v 1.77928257 -28.999176 -1.77928436
v 2.7141645 -28.999176 -1.12424541
v 2.7141645 -28.999176 -1.12424541
v 3.53316426 -29.1505737 -1.46348643
v 2.31618142 -29.1505737 -2.31618357
v 1.46348429 -29.1505737 -3.53316545
v -1.46348512 -29.1505737 -3.53316545
v -1.12424409 -28.999176 -2.71416569
v -1.12424409 -28.999176 -2.71416569
v 1.1242435 -28.999176 -2.71416569
v 1.46348429 -29.1505737 -3.53316545
v -2.31618237 -29.1505737 -2.31618285
v -1.77928281 -28.999176 -1.77928412
v -1.12424409 -28.999176 -2.71416569
v -1.12424409 -28.999176 -2.71416569
v -1.46348512 -29.1505737 -3.53316545
v -2.31618237 -29.1505737 -2.31618285
v -3.53316474 -29.1505737 -1.46348584
v -3.53316426 -29.1505737 1.46348381
v -2.7141645 -28.999176 1.12424278
v -2.7141645 -28.999176 1.12424278
v -2.7141645 -28.999176 -1.12424493
v -3.53316474 -29.1505737 -1.46348584
v -2.31618142 -29.1505737 2.31618094
v -1.77928221 -28.999176 1.77928174
v -2.7141645 -28.999176 1.12424278
v -2.7141645 -28.999176 1.12424278
v -3.53316426 -29.1505737 1.46348381
v -2.31618142 -29.1505737 2.31618094
v -1.46348381 -29.1505737 3.53316402
v 1.46348476 -29.1505737 3.53316307
v 1.12424409 -28.999176 2.71416306
v 1.12424409 -28.999176 2.71416306
v -1.12424302 -28.999176 2.71416354
v -1.46348381 -29.1505737 3.53316402
v 2.3161819 -29.1505737 2.31618071
v 1.77928281 -28.999176 1.77928126
v 1.12424409 -28.999176 2.71416306
v 1.12424409 -28.999176 2.71416306
v 1.46348476 -29.1505737 3.53316307
v 2.3161819 -29.1505737 2.31618071
v 3.53316474 -29.1505737 1.46348345
v 3.53316426 -29.1505737 -1.46348643
v 2.7141645 -28.999176 -1.12424541
v 2.7141645 -28.999176 -1.12424541
v 2.7141645 -28.999176 1.12424254
v 3.53316474 -29.1505737 1.46348345
v 1.46348429 -29.1505737 -3.53316545
v 1.46348429 -31.2387543 -3.53316545
v 1.46348321 -31.2387543 -17.0850315
v 1.46348321 -31.2387543 -17.0850315
v 1.46348321 -29.1505737 -17.0850315
v 1.46348429 -29.1505737 -3.53316545
v 1.46348429 -31.2387543 -3.53316545
v -1.46348512 -31.2387543 -3.53316545
v -1.46348619 -31.2387543 -17.0850315
v -1.46348619 -31.2387543 -17.0850315
v 1.46348321 -31.2387543 -17.0850315
v 1.46348429 -31.2387543 -3.53316545
v -1.46348512 -31.2387543 -3.53316545
v -1.46348512 -29.1505737 -3.53316545
v -1.46348619 -29.1505737 -17.0850315
v -1.46348619 -29.1505737 -17.0850315
v -1.46348619 -31.2387543 -17.0850315
v -1.46348512 -31.2387543 -3.53316545
v -1.46348512 -29.1505737 -3.53316545
v 1.46348429 -29.1505737 -3.53316545
v 1.46348321 -29.1505737 -17.0850315
v 1.46348321 -29.1505737 -17.0850315
v -1.46348619 -29.1505737 -17.0850315
v -1.46348512 -29.1505737 -3.53316545
v -3.53316474 -29.1505737 -1.46348584
v -3.53316474 -31.2387543 -1.46348572
v -17.0850277 -31.2387543 -1.46348345
v -17.0850277 -31.2387543 -1.46348345
v -17.0850277 -29.1505737 -1.46348357
v -3.53316474 -29.1505737 -1.46348584
v -3.53316474 -31.2387543 -1.46348572
v -3.53316426 -31.2387543 1.46348393
v -17.0850277 -31.2387543 1.46348619
v -17.0850277 -31.2387543 1.46348619
v -17.0850277 -31.2387543 -1.46348345
v -3.53316474 -31.2387543 -1.46348572
v -3.53316426 -31.2387543 1.46348393
v -3.53316426 -29.1505737 1.46348381
v -17.0850277 -29.1505737 1.46348608
v -17.0850277 -29.1505737 1.46348608
v -17.0850277 -31.2387543 1.46348619
v -3.53316426 -31.2387543 1.46348393
v -3.53316426 -29.1505737 1.46348381
v -3.53316474 -29.1505737 -1.46348584
v -17.0850277 -29.1505737 -1.46348357
v -17.0850277 -29.1505737 -1.46348357
v -17.0850277 -29.1505737 1.46348608
v -3.53316426 -29.1505737 1.46348381
v -1.46348381 -29.1505737 3.53316402
v -1.46348369 -31.2387543 3.53316402
v -1.46348143 -31.2387543 17.0850258
v -1.46348143 -31.2387543 17.0850258
v -1.46348155 -29.1505737 17.0850258
v -1.46348381 -29.1505737 3.53316402
v -1.46348369 -31.2387543 3.53316402
v 1.46348488 -31.2387543 3.53316307
v 1.46348727 -31.2387543 17.0850258
v 1.46348727 -31.2387543 17.0850258
v -1.46348143 -31.2387543 17.0850258
v -1.46348369 -31.2387543 3.53316402
v 1.46348488 -31.2387543 3.53316307
v 1.46348476 -29.1505737 3.53316307
v 1.46348703 -29.1505737 17.0850258
v 1.46348703 -29.1505737 17.0850258
v 1.46348727 -31.2387543 17.0850258
v 1.46348488 -31.2387543 3.53316307
v 1.46348476 -29.1505737 3.53316307
v -1.46348381 -29.1505737 3.53316402
v -1.46348155 -29.1505737 17.0850258
v -1.46348155 -29.1505737 17.0850258
v 1.46348703 -29.1505737 17.0850258
v 1.46348476 -29.1505737 3.53316307
v 3.53316426 -31.2387543 -1.46348631
v 3.53316426 -29.1505737 -1.46348643
v 17.0850296 -29.1505737 -1.4634887
v 17.0850296 -29.1505737 -1.4634887
v 17.0850296 -31.2387543 -1.46348858
v 3.53316426 -31.2387543 -1.46348631
v 3.53316426 -29.1505737 -1.46348643
v 3.53316474 -29.1505737 1.46348345
v 17.0850296 -29.1505737 1.46348119
v 17.0850296 -29.1505737 1.46348119
v 17.0850296 -29.1505737 -1.4634887
v 3.53316426 -29.1505737 -1.46348643
v 3.53316474 -29.1505737 1.46348345
v 3.53316474 -31.2387543 1.46348357
v 17.0850296 -31.2387543 1.46348131
v 17.0850296 -31.2387543 1.46348131
v 17.0850296 -29.1505737 1.46348119
v 3.53316474 -29.1505737 1.46348345
v 3.53316474 -31.2387543 1.46348357
v 3.53316426 -31.2387543 -1.46348631
v 17.0850296 -31.2387543 -1.46348858
v 17.0850296 -31.2387543 -1.46348858
v 17.0850296 -31.2387543 1.46348131
v 3.53316474 -31.2387543 1.46348357
v 1.46348429 -31.2387543 -3.53316545
v 1.46348429 -29.1505737 -3.53316545
v 2.31618142 -29.1505737 -2.31618357
v 2.31618142 -29.1505737 -2.31618357
v 2.31618142 -31.2387543 -2.31618357
v 1.46348429 -31.2387543 -3.53316545
v -3.53316474 -31.2387543 -1.46348572
v -3.53316474 -29.1505737 -1.46348584
v -2.31618237 -29.1505737 -2.31618285
v -2.31618237 -29.1505737 -2.31618285
v -2.31618237 -31.2387543 -2.31618285
v -3.53316474 -31.2387543 -1.46348572
v -1.46348369 -31.2387543 3.53316402
v -1.46348381 -29.1505737 3.53316402
v -2.31618142 -29.1505737 2.31618094
v -2.31618142 -29.1505737 2.31618094
v -2.31618142 -31.2387543 2.31618094
v -1.46348369 -31.2387543 3.53316402
v 3.53316474 -31.2387543 1.46348357
v 3.53316474 -29.1505737 1.46348345
v 2.3161819 -29.1505737 2.31618071
v 2.3161819 -29.1505737 2.31618071
v 2.31618237 -31.2387543 2.31618071
v 3.53316474 -31.2387543 1.46348357
v -1.46348512 -31.2387543 -3.53316545
v 1.46348429 -31.2387543 -3.53316545
v 2.31618142 -31.2387543 -2.31618357
v 2.31618142 -31.2387543 -2.31618357
v -2.31618237 -31.2387543 -2.31618285
v -1.46348512 -31.2387543 -3.53316545
v -3.53316426 -31.2387543 1.46348393
v -3.53316474 -31.2387543 -1.46348572
v -2.31618237 -31.2387543 -2.31618285
v -2.31618237 -31.2387543 -2.31618285
v -2.31618142 -31.2387543 2.31618094
v -3.53316426 -31.2387543 1.46348393
v 1.46348488 -31.2387543 3.53316307
v -1.46348369 -31.2387543 3.53316402
v -2.31618142 -31.2387543 2.31618094
v -2.31618142 -31.2387543 2.31618094
v 2.31618237 -31.2387543 2.31618071
v 1.46348488 -31.2387543 3.53316307
v 2.31618237 -31.2387543 2.31618071
v 2.31618142 -31.2387543 -2.31618357
v 3.53316426 -31.2387543 -1.46348631
v 3.53316426 -31.2387543 -1.46348631
v 3.53316474 -31.2387543 1.46348357
v 2.31618237 -31.2387543 2.31618071
v -1.12424302 -28.999176 2.71416354
v 1.12424409 -28.999176 2.71416306
v 1.77928281 -28.999176 1.77928126
v 1.77928281 -28.999176 1.77928126
v -1.77928221 -28.999176 1.77928174
v -1.12424302 -28.999176 2.71416354
v -2.7141645 -28.999176 -1.12424493
v -2.7141645 -28.999176 1.12424278
v -1.77928221 -28.999176 1.77928174
v -1.77928221 -28.999176 1.77928174
v -1.77928281 -28.999176 -1.77928412
v -2.7141645 -28.999176 -1.12424493
v 1.1242435 -28.999176 -2.71416569
v -1.12424409 -28.999176 -2.71416569
v -1.77928281 -28.999176 -1.77928412
v -1.77928281 -28.999176 -1.77928412
v 1.77928257 -28.999176 -1.77928436
v 1.1242435 -28.999176 -2.71416569
v 1.77928257 -28.999176 -1.77928436
v 1.77928281 -28.999176 1.77928126
v 2.7141645 -28.999176 1.12424254
v 2.7141645 -28.999176 1.12424254
v 2.7141645 -28.999176 -1.12424541
v 1.77928257 -28.999176 -1.77928436
v 2.31618142 -29.1505737 -2.31618357
v 1.46348429 -29.1505737 -3.53316545
v 1.1242435 -28.999176 -2.71416569
v 1.1242435 -28.999176 -2.71416569
v 1.77928257 -28.999176 -1.77928436
v 2.31618142 -29.1505737 -2.31618357
v -2.31618237 -29.1505737 -2.31618285
v -3.53316474 -29.1505737 -1.46348584
v -2.7141645 -28.999176 -1.12424493
v -2.7141645 -28.999176 -1.12424493
v -1.77928281 -28.999176 -1.77928412
v -2.31618237 -29.1505737 -2.31618285
v -2.31618142 -29.1505737 2.31618094
v -1.46348381 -29.1505737 3.53316402
v -1.12424302 -28.999176 2.71416354
v -1.12424302 -28.999176 2.71416354
v -1.77928221 -28.999176 1.77928174
v -2.31618142 -29.1505737 2.31618094
v 2.3161819 -29.1505737 2.31618071
v 3.53316474 -29.1505737 1.46348345
v 2.7141645 -28.999176 1.12424254
v 2.7141645 -28.999176 1.12424254
v 1.77928281 -28.999176 1.77928126
v 2.3161819 -29.1505737 2.31618071
v -15.3104286 -31.9471893 0.00948981941
v -15.5154457 -31.9471893 -0.485467762
v -15.5154457 -31.2089195 -0.485467732
v -15.5154457 -31.2089195 -0.485467732
v -15.3104286 -31.2089195 0.00948978122
v -15.3104286 -31.9471893 0.00948981941
v -15.5154457 -31.9471893 -0.485467762
v -16.0104046 -31.9471893 -0.690485835
v -16.0104046 -31.2089195 -0.690485835
v -16.0104046 -31.2089195 -0.690485835
v -15.5154457 -31.2089195 -0.485467732
v -15.5154457 -31.9471893 -0.485467762
v -16.0104046 -31.9471893 -0.690485835
v -16.5053616 -31.9471893 -0.485467762
v -16.5053616 -31.2089195 -0.485467732
v -16.5053616 -31.2089195 -0.485467732
v -16.0104046 -31.2089195 -0.690485835
v -16.0104046 -31.9471893 -0.690485835
v -16.5053616 -31.9471893 -0.485467762
v -16.7103806 -31.9471893 0.00948987994
v -16.7103806 -31.2089195 0.00948984269
v -16.7103806 -31.2089195 0.00948984269
v -16.5053616 -31.2089195 -0.485467732
v -16.5053616 -31.9471893 -0.485467762
v -16.7103806 -31.9471893 0.00948987994
v -16.5053616 -31.9471893 0.50444746
v -16.5053616 -31.2089195 0.50444752
v -16.5053616 -31.2089195 0.50444752
v -16.7103806 -31.2089195 0.00948984269
v -16.7103806 -31.9471893 0.00948987994
v -16.5053616 -31.9471893 0.50444746
v -16.0104046 -31.9471893 0.709465504
v -16.0104046 -31.2089195 0.709465504
v -16.0104046 -31.2089195 0.709465504
v -16.5053616 -31.2089195 0.50444752
v -16.5053616 -31.9471893 0.50444746
v -16.0104046 -31.9471893 0.709465504
v -15.5154457 -31.9471893 0.50444746
v -15.5154457 -31.2089195 0.50444752
v -15.5154457 -31.2089195 0.50444752
v -16.0104046 -31.2089195 0.709465504
v -16.0104046 -31.9471893 0.709465504
v -15.5154457 -31.9471893 0.50444746
v -15.3104286 -31.9471893 0.00948981941
v -15.3104286 -31.2089195 0.00948978122
v -15.3104286 -31.2089195 0.00948978122
v -15.5154457 -31.2089195 0.50444752
v -15.5154457 -31.9471893 0.50444746
v -16.0104046 -31.9471893 0.709465504
v -16.5053616 -31.9471893 0.50444746
v -16.7103806 -31.9471893 0.00948987994
v -16.7103806 -31.9471893 0.00948987994
v -16.5053616 -31.9471893 -0.485467762
v -16.0104046 -31.9471893 -0.690485835
v -16.0104046 -31.9471893 -0.690485835
v -15.5154457 -31.9471893 -0.485467762
v -15.3104286 -31.9471893 0.00948981941
v -16.7103806 -31.9471893 0.00948987994
v -16.0104046 -31.9471893 -0.690485835
v -15.3104286 -31.9471893 0.00948981941
v -16.0104046 -31.9471893 0.709465504
v -16.7103806 -31.9471893 0.00948987994
v -15.3104286 -31.9471893 0.00948981941
v -15.5154457 -31.9471893 0.50444746
v -16.0104046 -31.9471893 0.709465504
v -15.3104286 -31.9471893 0.00948981941
v 0.714199364 -31.9471893 16.0000095
v 0.509181142 -31.9471893 15.5050526
v 0.509181142 -31.2089195 15.5050526
v 0.509181142 -31.2089195 15.5050526
v 0.714199364 -31.2089195 16.0000095
v 0.714199364 -31.9471893 16.0000095
v 0.509181142 -31.9471893 15.5050526
v 0.0142235756 -31.9471893 15.3000336
v 0.0142235756 -31.2089195 15.3000336
v 0.0142235756 -31.2089195 15.3000336
v 0.509181142 -31.2089195 15.5050526
v 0.509181142 -31.9471893 15.5050526
v 0.0142235756 -31.9471893 15.3000336
v -0.480733961 -31.9471893 15.5050526
v -0.480733961 -31.2089195 15.5050526
v -0.480733961 -31.2089195 15.5050526
v 0.0142235756 -31.2089195 15.3000336
v 0.0142235756 -31.9471893 15.3000336
v -0.480733961 -31.9471893 15.5050526
v -0.685752034 -31.9471893 16.0000095
v -0.685752034 -31.2089195 16.0000095
v -0.685752034 -31.2089195 16.0000095
v -0.480733961 -31.2089195 15.5050526
v -0.480733961 -31.9471893 15.5050526
v -0.685752034 -31.9471893 16.0000095
v -0.480733812 -31.9471893 16.4949665
v -0.480733812 -31.2089195 16.4949665
v -0.480733812 -31.2089195 16.4949665
v -0.685752034 -31.2089195 16.0000095
v -0.685752034 -31.9471893 16.0000095
v -0.480733812 -31.9471893 16.4949665
v 0.0142236156 -31.9471893 16.6999836
v 0.0142236156 -31.2089195 16.6999836
v 0.0142236156 -31.2089195 16.6999836
v -0.480733812 -31.2089195 16.4949665
v -0.480733812 -31.9471893 16.4949665
v 0.0142236156 -31.9471893 16.6999836
v 0.509181142 -31.9471893 16.4949665
v 0.509181142 -31.2089195 16.4949665
v 0.509181142 -31.2089195 16.4949665
v 0.0142236156 -31.2089195 16.6999836
v 0.0142236156 -31.9471893 16.6999836
v 0.509181142 -31.9471893 16.4949665
v 0.714199364 -31.9471893 16.0000095
v 0.714199364 -31.2089195 16.0000095
v 0.714199364 -31.2089195 16.0000095
v 0.509181142 -31.2089195 16.4949665
v 0.509181142 -31.9471893 16.4949665
v 0.0142236156 -31.9471893 16.6999836
v -0.480733812 -31.9471893 16.4949665
v -0.685752034 -31.9471893 16.0000095
v -0.685752034 -31.9471893 16.0000095
v -0.480733961 -31.9471893 15.5050526
v 0.0142235756 -31.9471893 15.3000336
v 0.0142235756 -31.9471893 15.3000336
v 0.509181142 -31.9471893 15.5050526
v 0.714199364 -31.9471893 16.0000095
v -0.685752034 -31.9471893 16.0000095
v 0.0142235756 -31.9471893 15.3000336
v 0.714199364 -31.9471893 16.0000095
v 0.0142236156 -31.9471893 16.6999836
v -0.685752034 -31.9471893 16.0000095
v 0.714199364 -31.9471893 16.0000095
v 0.509181142 -31.9471893 16.4949665
v 0.0142236156 -31.9471893 16.6999836
v 0.714199364 -31.9471893 16.0000095
v 16.7054996 -31.9471893 0.00948981941
v 16.5004807 -31.9471893 -0.485467762
v 16.5004807 -31.2089195 -0.485467732
v 16.5004807 -31.2089195 -0.485467732
v 16.7054996 -31.2089195 0.00948978122
v 16.7054996 -31.9471893 0.00948981941
v 16.5004807 -31.9471893 -0.485467762
v 16.0055237 -31.9471893 -0.690485835
v 16.0055237 -31.2089195 -0.690485835
v 16.0055237 -31.2089195 -0.690485835
v 16.5004807 -31.2089195 -0.485467732
v 16.5004807 -31.9471893 -0.485467762
v 16.0055237 -31.9471893 -0.690485835
v 15.5105658 -31.9471893 -0.485467762
v 15.5105658 -31.2089195 -0.485467732
v 15.5105658 -31.2089195 -0.485467732
v 16.0055237 -31.2089195 -0.690485835
v 16.0055237 -31.9471893 -0.690485835
v 15.5105658 -31.9471893 -0.485467762
v 15.3055477 -31.9471893 0.00948987994
v 15.3055477 -31.2089195 0.00948984269
v 15.3055477 -31.2089195 0.00948984269
v 15.5105658 -31.2089195 -0.485467732
v 15.5105658 -31.9471893 -0.485467762
v 15.3055477 -31.9471893 0.00948987994
v 15.5105658 -31.9471893 0.50444746
v 15.5105658 -31.2089195 0.50444752
v 15.5105658 -31.2089195 0.50444752
v 15.3055477 -31.2089195 0.00948984269
v 15.3055477 -31.9471893 0.00948987994
v 15.5105658 -31.9471893 0.50444746
v 16.0055237 -31.9471893 0.709465504
v 16.0055237 -31.2089195 0.709465504
v 16.0055237 -31.2089195 0.709465504
v 15.5105658 -31.2089195 0.50444752
v 15.5105658 -31.9471893 0.50444746
v 16.0055237 -31.9471893 0.709465504
v 16.5004807 -31.9471893 0.50444746
v 16.5004807 -31.2089195 0.50444752
v 16.5004807 -31.2089195 0.50444752
v 16.0055237 -31.2089195 0.709465504
v 16.0055237 -31.9471893 0.709465504
v 16.5004807 -31.9471893 0.50444746
v 16.7054996 -31.9471893 0.00948981941
v 16.7054996 -31.2089195 0.00948978122
v 16.7054996 -31.2089195 0.00948978122
v 16.5004807 -31.2089195 0.50444752
v 16.5004807 -31.9471893 0.50444746
v 16.0055237 -31.9471893 0.709465504
v 15.5105658 -31.9471893 0.50444746
v 15.3055477 -31.9471893 0.00948987994
v 15.3055477 -31.9471893 0.00948987994
v 15.5105658 -31.9471893 -0.485467762
v 16.0055237 -31.9471893 -0.690485835
v 16.0055237 -31.9471893 -0.690485835
v 16.5004807 -31.9471893 -0.485467762
v 16.7054996 -31.9471893 0.00948981941
v 15.3055477 -31.9471893 0.00948987994
v 16.0055237 -31.9471893 -0.690485835
v 16.7054996 -31.9471893 0.00948981941
v 16.0055237 -31.9471893 0.709465504
v 15.3055477 -31.9471893 0.00948987994
v 16.7054996 -31.9471893 0.00948981941
v 16.5004807 -31.9471893 0.50444746
v 16.0055237 -31.9471893 0.709465504
v 16.7054996 -31.9471893 0.00948981941
v 0.714200735 -31.9471893 -15.9980278
v 0.509182572 -31.9471893 -16.4929867
v 0.509182572 -31.2089195 -16.4929867
v 0.509182572 -31.2089195 -16.4929867
v 0.714200735 -31.2089195 -15.9980278
v 0.714200735 -31.9471893 -15.9980278
v 0.509182572 -31.9471893 -16.4929867
v 0.0142249744 -31.9471893 -16.6980057
v 0.0142249744 -31.2089195 -16.6980057
v 0.0142249744 -31.2089195 -16.6980057
v 0.509182572 -31.2089195 -16.4929867
v 0.509182572 -31.9471893 -16.4929867
v 0.0142249744 -31.9471893 -16.6980057
v -0.48073259 -31.9471893 -16.4929867
v -0.48073259 -31.2089195 -16.4929867
v -0.48073259 -31.2089195 -16.4929867
v 0.0142249744 -31.2089195 -16.6980057
v 0.0142249744 -31.9471893 -16.6980057
v -0.48073259 -31.9471893 -16.4929867
v -0.685750663 -31.9471893 -15.9980278
v -0.685750663 -31.2089195 -15.9980278
v -0.685750663 -31.2089195 -15.9980278
v -0.48073259 -31.2089195 -16.4929867
v -0.48073259 -31.9471893 -16.4929867
v -0.685750663 -31.9471893 -15.9980278
v -0.480732441 -31.9471893 -15.5030699
v -0.480732441 -31.2089195 -15.5030699
v -0.480732441 -31.2089195 -15.5030699
v -0.685750663 -31.2089195 -15.9980278
v -0.685750663 -31.9471893 -15.9980278
v -0.480732441 -31.9471893 -15.5030699
v 0.0142250145 -31.9471893 -15.2980528
v 0.0142250145 -31.2089195 -15.2980528
v 0.0142250145 -31.2089195 -15.2980528
v -0.480732441 -31.2089195 -15.5030699
v -0.480732441 -31.9471893 -15.5030699
v 0.0142250145 -31.9471893 -15.2980528
v 0.509182513 -31.9471893 -15.5030699
v 0.509182513 -31.2089195 -15.5030699
v 0.509182513 -31.2089195 -15.5030699
v 0.0142250145 -31.2089195 -15.2980528
v 0.0142250145 -31.9471893 -15.2980528
v 0.509182513 -31.9471893 -15.5030699
v 0.714200735 -31.9471893 -15.9980278
v 0.714200735 -31.2089195 -15.9980278
v 0.714200735 -31.2089195 -15.9980278
v 0.509182513 -31.2089195 -15.5030699
v 0.509182513 -31.9471893 -15.5030699
v 0.0142250145 -31.9471893 -15.2980528
v -0.480732441 -31.9471893 -15.5030699
v -0.685750663 -31.9471893 -15.9980278
v -0.685750663 -31.9471893 -15.9980278
v -0.48073259 -31.9471893 -16.4929867
v 0.0142249744 -31.9471893 -16.6980057
v 0.0142249744 -31.9471893 -16.6980057
v 0.509182572 -31.9471893 -16.4929867
v 0.714200735 -31.9471893 -15.9980278
v -0.685750663 -31.9471893 -15.9980278
v 0.0142249744 -31.9471893 -16.6980057
v 0.714200735 -31.9471893 -15.9980278
v 0.0142250145 -31.9471893 -15.2980528
v -0.685750663 -31.9471893 -15.9980278
v 0.714200735 -31.9471893 -15.9980278
v 0.509182513 -31.9471893 -15.5030699
v 0.0142250145 -31.9471893 -15.2980528
v 0.714200735 -31.9471893 -15.9980278

# 386 UV coordinates
vt 0.946502388 0.719715536 0
vt 0.946502388 0.742623746 0
vt 0.530747235 0.742623806 0
vt 0.530747235 0.719715595 0
vt 0.946502388 0.765530527 0
vt 0.530747235 0.765530586 0
vt 0.946502388 0.788437665 0
vt 0.530747235 0.788437665 0
vt 0.946502388 0.811344683 0
vt 0.530747235 0.811344683 0
vt 0.946502388 0.834252417 0
vt 0.530747235 0.834252417 0
vt 0.946502388 0.857159197 0
vt 0.530747235 0.857159197 0
vt 0.946502388 0.880066931 0
vt 0.530747235 0.880066931 0
vt 0.946502388 0.90297395 0
vt 0.530747235 0.90297395 0
vt 0.946502388 0.925881684 0
vt 0.530747235 0.925881684 0
vt 0.946502388 0.948788941 0
vt 0.530747235 0.948788941 0
vt 0.946502388 0.971695483 0
vt 0.530747235 0.971695483 0
vt 0.946502388 0.994602978 0
vt 0.530747235 0.994602978 0
vt 0.0559837334 0.0559831113 0
vt 0.146436661 0.0559831262 0
vt 0.146436632 0.14604263 0
vt 0.0559837259 0.146042615 0
vt 0.965222895 0.251405507 0
vt 0.965223014 0.499444157 0
vt 0.953641951 0.499444157 0
vt 0.953641951 0.251405507 0
vt 0.965223014 0.747995257 0
vt 0.95364207 0.747995257 0
vt 0.965223014 0.996033788 0
vt 0.95364207 0.996033788 0
vt 0.965222895 0.002854391 0
vt 0.953641951 0.002854391 0
vt 0.0056800833 0.00568117201 0
vt 0.196739852 0.00568118691 0
vt 0.170812279 0.0316074044 0
vt 0.0316075981 0.0316073895 0
vt 0.196739823 0.196345985 0
vt 0.170812249 0.170417309 0
vt 0.00568006886 0.19634597 0
vt 0.0316075906 0.170417294 0
vt 0.997254312 0.562217176 0
vt 0.997254312 0.593317509 0
vt 0.967938185 0.593317509 0
vt 0.967938185 0.562217176 0
vt 0.997254312 0.624418199 0
vt 0.967938185 0.624418199 0
vt 0.997254312 0.655518591 0
vt 0.967938185 0.655518591 0
vt 0.997254312 0.686619043 0
vt 0.967938185 0.686619043 0
vt 0.997254312 0.717719674 0
vt 0.967938185 0.717719674 0
vt 0.997254312 0.748820007 0
vt 0.967938185 0.748820007 0
vt 0.997254312 0.779920459 0
vt 0.967938185 0.779920459 0
vt 0.997254312 0.811020851 0
vt 0.967938185 0.811020851 0
vt 0.997254312 0.842121482 0
vt 0.967938185 0.842121482 0
vt 0.997254312 0.873222172 0
vt 0.967938185 0.873222172 0
vt 0.997254312 0.904322803 0
vt 0.967938185 0.904322803 0
vt 0.99725461 0.935423255 0
vt 0.967938185 0.935423255 0
vt 0.99725461 0.966523647 0
vt 0.967938185 0.966523647 0
vt 0.99725461 0.997624576 0
vt 0.967938185 0.997624576 0
vt 0.997254312 0.00240791216 0
vt 0.997254312 0.033508569 0
vt 0.967937887 0.033508569 0
vt 0.967937887 0.00240791216 0
vt 0.997254312 0.0646088943 0
vt 0.967938066 0.0646088943 0
vt 0.997254312 0.0957092717 0
vt 0.967938066 0.0957092717 0
vt 0.997254312 0.126809686 0
vt 0.967938066 0.126809686 0
vt 0.997254312 0.157910734 0
vt 0.967938066 0.157910734 0
vt 0.997254312 0.18901141 0
vt 0.967938066 0.18901141 0
vt 0.997254312 0.220111534 0
vt 0.967938066 0.220111534 0
vt 0.997254312 0.251211941 0
vt 0.967938066 0.251211941 0
vt 0.997254312 0.282312602 0
vt 0.967938066 0.282312602 0
vt 0.997254312 0.313413143 0
vt 0.967938066 0.313413143 0
vt 0.997254312 0.344513685 0
vt 0.967938066 0.344513685 0
vt 0.997254312 0.375614196 0
vt 0.967938066 0.375614196 0
vt 0.997254312 0.406714588 0
vt 0.967938066 0.406714588 0
vt 0.997254312 0.437814981 0
vt 0.967938066 0.437814981 0
vt 0.997254312 0.468915373 0
vt 0.967938066 0.468915373 0
vt 0.997254312 0.500015795 0
vt 0.967938185 0.500015795 0
vt 0.997254312 0.531116664 0
vt 0.967938185 0.531116664 0
vt 0.333916306 0.985952795 0
vt 0.284850597 0.995814502 0
vt 0.234801486 0.995913565 0
vt 0.185699716 0.986248076 0
vt 0.139424041 0.967187941 0
vt 0.0977568105 0.939466178 0
vt 0.0622966364 0.904147685 0
vt 0.0344125703 0.862591565 0
vt 0.0151667092 0.816393077 0
vt 0.00530434586 0.767327487 0
vt 0.00520587899 0.717280209 0
vt 0.0148716066 0.668176591 0
vt 0.0339295939 0.621900976 0
vt 0.0616528466 0.580233276 0
vt 0.0969721749 0.544774711 0
vt 0.138528958 0.516887963 0
vt 0.184725836 0.497644335 0
vt 0.233793691 0.487781614 0
vt 0.283839464 0.487683475 0
vt 0.332944214 0.497348905 0
vt 0.379218042 0.516409099 0
vt 0.42088455 0.544130862 0
vt 0.456345081 0.579448044 0
vt 0.484231353 0.621005476 0
vt 0.503476799 0.667204559 0
vt 0.513336658 0.71626991 0
vt 0.513436258 0.76631695 0
vt 0.503771901 0.815420449 0
vt 0.484711349 0.861696064 0
vt 0.456989229 0.903363645 0
vt 0.421670258 0.938822329 0
vt 0.38011533 0.966708958 0
vt 0.917246103 0.337727576 0
vt 0.936490178 0.383926988 0
vt 0.946351528 0.432992309 0
vt 0.946451187 0.483038455 0
vt 0.936784625 0.532143235 0
vt 0.917723894 0.578418732 0
vt 0.890002131 0.620086193 0
vt 0.854685426 0.655545235 0
vt 0.813128591 0.683431864 0
vt 0.766928911 0.7026757 0
vt 0.717864037 0.712537169 0
vt 0.667817533 0.712636352 0
vt 0.618712783 0.702970266 0
vt 0.572437882 0.683909655 0
vt 0.530769885 0.656188965 0
vt 0.495310783 0.620870709 0
vt 0.467424154 0.579313993 0
vt 0.448180139 0.533114791 0
vt 0.438319206 0.484049231 0
vt 0.438220024 0.434003055 0
vt 0.447886169 0.384898335 0
vt 0.466946304 0.338623017 0
vt 0.494668484 0.296955049 0
vt 0.529985189 0.261495978 0
vt 0.571541965 0.233609736 0
vt 0.617741823 0.214365706 0
vt 0.666807115 0.20450443 0
vt 0.716853261 0.204405203 0
vt 0.765957594 0.214071348 0
vt 0.81223321 0.233131871 0
vt 0.85390079 0.260853261 0
vt 0.889359832 0.296170801 0
vt 0.717900276 0.0919367 0
vt 0.717900276 0.117837608 0
vt 0.699468732 0.117837608 0
vt 0.699468732 0.0919367 0
vt 0.904423356 0.0919367 0
vt 0.940728307 0.0919367 0
vt 0.940728307 0.117837608 0
vt 0.904423356 0.117837608 0
vt 0.717703462 0.0349815898 0
vt 0.717703462 0.0608824976 0
vt 0.699272156 0.0608824976 0
vt 0.699272156 0.0349815898 0
vt 0.904226661 0.0349815898 0
vt 0.940531492 0.0349815898 0
vt 0.940531492 0.0608824976 0
vt 0.904226661 0.0608824976 0
vt 0.71769309 0.0637619719 0
vt 0.71769309 0.0896628872 0
vt 0.699261785 0.0896628872 0
vt 0.699261785 0.0637619719 0
vt 0.904216528 0.0637619719 0
vt 0.940521359 0.0637619719 0
vt 0.940521359 0.0896628872 0
vt 0.904216528 0.0896628872 0
vt 0.71752882 0.00569448108 0
vt 0.71752882 0.0315953903 0
vt 0.699097276 0.0315953903 0
vt 0.699097276 0.00569448108 0
vt 0.904052019 0.00569448108 0
vt 0.940356851 0.00569448108 0
vt 0.940356851 0.0315953903 0
vt 0.904052019 0.0315953903 0
vt 0.493421078 0.141031787 0
vt 0.560087919 0.141031772 0
vt 0.560087919 0.207698077 0
vt 0.493421137 0.207698092 0
vt 0.262261808 0.213915229 0
vt 0.26239872 0.262846947 0
vt 0.213466465 0.262985259 0
vt 0.213328972 0.214053556 0
vt 0.269622743 0.206511676 0
vt 0.253217518 0.201085329 0
vt 0.257851183 0.189810589 0
vt 0.286390454 0.218190089 0
vt 0.286503643 0.25843659 0
vt 0.27522862 0.253804892 0
vt 0.275142252 0.222885564 0
vt 0.269802272 0.270209014 0
vt 0.258124709 0.286976129 0
vt 0.21787709 0.287089914 0
vt 0.222510174 0.275814891 0
vt 0.253427535 0.275727659 0
vt 0.206104666 0.270388812 0
vt 0.189337537 0.258710116 0
vt 0.189224049 0.218463063 0
vt 0.200499073 0.22309643 0
vt 0.200586021 0.254014641 0
vt 0.20592542 0.206691489 0
vt 0.217604116 0.189924359 0
vt 0.222300425 0.20117256 0
vt 0.736331582 0.117837608 0
vt 0.736331582 0.0919367 0
vt 0.278398901 0.280633777 0
vt 0.320522219 0.280633777 0
vt 0.320522249 0.475661963 0
vt 0.278398931 0.475661963 0
vt 0.531180263 0.0608824976 0
vt 0.531180263 0.0349815898 0
vt 0.472735822 0.217665851 0
vt 0.472848743 0.257912904 0
vt 0.736134887 0.0608824976 0
vt 0.736134887 0.0349815898 0
vt 0.577600837 0.195426285 0
vt 0.577600837 0.153303534 0
vt 0.772629142 0.153303504 0
vt 0.772629142 0.195426255 0
vt 0.53117013 0.0896628872 0
vt 0.53117013 0.0637619719 0
vt 0.25864923 0.473321825 0
vt 0.218401328 0.473435432 0
vt 0.736124754 0.0896628872 0
vt 0.736124754 0.0637619719 0
vt 0.381462187 0.473995388 0
vt 0.339338988 0.473995417 0
vt 0.339338958 0.278967232 0
vt 0.381462157 0.278967202 0
vt 0.531005621 0.0315953903 0
vt 0.531005621 0.00569448108 0
vt 0.00299216597 0.259235471 0
vt 0.00287896418 0.218988433 0
vt 0.531377077 0.117837608 0
vt 0.531377077 0.0919367 0
vt 0.217079028 0.00357899326 0
vt 0.25732553 0.00346579147 0
vt 0.735960364 0.0315953903 0
vt 0.735960364 0.00569448108 0
vt 0.475907505 0.153303549 0
vt 0.475907505 0.1954263 0
vt 0.280880272 0.19542633 0
vt 0.280880272 0.153303578 0
vt 0.54781574 0.22521162 0
vt 0.505692542 0.22521162 0
vt 0.505692482 0.123518243 0
vt 0.547815681 0.123518229 0
vt 0.89206183 0.180350244 0
vt 0.904173613 0.180350244 0
vt 0.904173613 0.197039634 0
vt 0.89206183 0.197039634 0
vt 0.916284323 0.180350244 0
vt 0.916284323 0.197039634 0
vt 0.928396106 0.180350244 0
vt 0.928396106 0.197039634 0
vt 0.940504909 0.180350244 0
vt 0.940504909 0.197039634 0
vt 0.843618751 0.180350244 0
vt 0.855730057 0.180350244 0
vt 0.855730057 0.197039634 0
vt 0.843618751 0.197039634 0
vt 0.867839813 0.180350244 0
vt 0.867839813 0.197039634 0
vt 0.879949212 0.180350244 0
vt 0.879949212 0.197039634 0
vt 0.939599752 0.227455437 0
vt 0.929083347 0.22735244 0
vt 0.921721578 0.219843626 0
vt 0.921825051 0.209329009 0
vt 0.929332376 0.201965868 0
vt 0.939847946 0.202068925 0
vt 0.94721055 0.209578216 0
vt 0.947107673 0.220092952 0
vt 0.916054964 0.142357558 0
vt 0.928167701 0.142357558 0
vt 0.928167701 0.159047902 0
vt 0.916054964 0.159047902 0
vt 0.940277457 0.142357558 0
vt 0.940277457 0.159047902 0
vt 0.843390703 0.142357558 0
vt 0.855502427 0.142357558 0
vt 0.855502427 0.159047902 0
vt 0.843390703 0.159047902 0
vt 0.867613316 0.142357558 0
vt 0.867613316 0.159047902 0
vt 0.879724979 0.142357558 0
vt 0.879724979 0.159047902 0
vt 0.89183569 0.142357558 0
vt 0.89183569 0.159047902 0
vt 0.903945684 0.142357558 0
vt 0.903945684 0.159047902 0
vt 0.939696789 0.255885214 0
vt 0.929181576 0.255781561 0
vt 0.921818495 0.248274073 0
vt 0.921920896 0.237758085 0
vt 0.929430008 0.230396256 0
vt 0.939945221 0.230499372 0
vt 0.947307587 0.238007531 0
vt 0.947204351 0.24852334 0
vt 0.843203604 0.122702576 0
vt 0.855314314 0.122702576 0
vt 0.855314314 0.139392912 0
vt 0.843203604 0.139392912 0
vt 0.867425084 0.122702576 0
vt 0.867425084 0.139392912 0
vt 0.879536748 0.122702576 0
vt 0.879536748 0.139392912 0
vt 0.891647696 0.122702576 0
vt 0.891647696 0.139392912 0
vt 0.90375936 0.122702576 0
vt 0.90375936 0.139392912 0
vt 0.915868759 0.122702576 0
vt 0.915868759 0.139392912 0
vt 0.927980423 0.122702576 0
vt 0.927980423 0.139392912 0
vt 0.940091133 0.122702576 0
vt 0.940091133 0.139392912 0
vt 0.939697623 0.313253462 0
vt 0.929181218 0.31314981 0
vt 0.921819448 0.305642307 0
vt 0.921922922 0.295126319 0
vt 0.929430246 0.28776449 0
vt 0.939945817 0.287867606 0
vt 0.947308421 0.295375764 0
vt 0.947205544 0.305891573 0
vt 0.916122794 0.161298454 0
vt 0.928234577 0.161298454 0
vt 0.928234577 0.177988857 0
vt 0.916122794 0.177988857 0
vt 0.940345883 0.161298454 0
vt 0.940345883 0.177988857 0
vt 0.843458533 0.161298454 0
vt 0.855570257 0.161298454 0
vt 0.855570257 0.177988857 0
vt 0.843458533 0.177988857 0
vt 0.867681146 0.161298454 0
vt 0.867681146 0.177988857 0
vt 0.879789472 0.161298454 0
vt 0.879789472 0.177988857 0
vt 0.891900301 0.161298454 0
vt 0.891900301 0.177988857 0
vt 0.904011965 0.161298454 0
vt 0.904011965 0.177988857 0
vt 0.94791925 0.265974998 0
vt 0.947816372 0.276490986 0
vt 0.940308452 0.283852875 0
vt 0.929792047 0.283749819 0
vt 0.922430277 0.27624166 0
vt 0.922533751 0.265726388 0
vt 0.930041075 0.258363247 0
vt 0.940556645 0.258466899 0

# 213 vertex normals
vn 0.99999994 1.99741712e-09 1.37494212e-07
vn 0.866025388 -1.17304388e-09 -0.5
vn 0.866025448 -1.61491442e-09 -0.499999911
vn 1 2.91932456e-09 3.14272455e-07
vn 0.499999851 -2.08875051e-09 -0.866025507
vn 0.49999994 -4.35897007e-09 -0.866025507
vn -7.2123072e-08 -4.1599435e-09 -1
vn 1.08031166e-07 -3.06077297e-09 -1
vn -0.5 -5.5256244e-09 -0.866025448
vn -0.499999881 -5.15923304e-09 -0.866025507
vn -0.866025448 -7.13389259e-09 -0.49999994
vn -0.866025388 -7.2284525e-09 -0.5
vn -1 -4.83037788e-09 -8.62407745e-08
vn -1 -6.65511113e-09 -8.83891289e-08
vn -0.866025507 -2.78985013e-09 0.499999821
vn -0.866025627 -3.51902685e-09 0.499999732
vn -0.500000179 -1.71893078e-09 0.866025269
vn -0.500000298 -4.08732959e-09 0.866025269
vn -3.96063086e-07 -3.86618026e-09 1
vn -5.59797797e-07 -3.13339399e-09 1
vn 0.499999523 -1.86209093e-09 0.866025686
vn 0.499999493 -3.76592624e-09 0.866025686
vn 0.866025209 5.03750108e-09 0.500000298
vn 0.866025269 -2.6077327e-09 0.500000238
vn -0.359095544 -0.861452758 0.359095424
vn -0.359095544 -0.861452758 -0.359095454
vn 0.359095514 -0.861452758 -0.359095424
vn 0.359095573 -0.861452758 0.359095484
vn -0.70710665 3.09086303e-08 0.707107008
vn 0.707106709 3.09086268e-08 0.707106888
vn 0.70710665 3.09086303e-08 0.707107008
vn -0.707106709 3.09086268e-08 0.707106888
vn 0.70710665 -3.09086303e-08 -0.707107008
vn 0.707106709 -3.09086268e-08 -0.707106888
vn -0.707106709 -3.09086268e-08 -0.707106888
vn -0.70710665 -3.09086303e-08 -0.707107008
vn 0 -1 4.37113918e-08
vn -0.13768898 -0.980858445 -0.137688965
vn -0.137689009 -0.980858564 0.137689024
vn 0.13768898 -0.980858564 -0.137688965
vn 0.137688965 -0.980858445 0.137689039
vn 1 -1.22917347e-14 -2.81202091e-07
vn 0.98078531 -8.52766924e-09 -0.195090309
vn 1 -1.21875674e-14 -2.78819016e-07
vn 0.923879504 -1.67276308e-08 -0.382683545
vn 0.923879504 -1.67276308e-08 -0.382683575
vn 0.831469595 -2.4284752e-08 -0.555570304
vn 0.555570185 -3.63446944e-08 -0.831469655
vn 0.555570185 -3.63446979e-08 -0.831469715
vn 0.382683545 -4.03840588e-08 -0.923879504
vn 0.195090309 -4.28714912e-08 -0.98078531
vn 0.195090339 -4.28714912e-08 -0.98078531
vn -1.66814793e-08 -4.37113918e-08 -1
vn -9.53227275e-09 -4.37113918e-08 -1
vn -0.195090353 -4.28714912e-08 -0.98078531
vn -0.195090309 -4.28714912e-08 -0.98078531
vn -0.382683337 -4.03840659e-08 -0.923879623
vn -0.555570185 -3.63446944e-08 -0.831469655
vn -0.707106888 -3.09086197e-08 -0.707106769
vn -0.831469595 -2.42847484e-08 -0.555570245
vn -0.923879623 -1.67276184e-08 -0.382683277
vn -0.923879564 -1.67276166e-08 -0.382683218
vn -0.980785429 -8.5276568e-09 -0.195090026
vn -0.98078531 -8.5276568e-09 -0.195090026
vn -0.99999994 9.4792194e-15 2.16859249e-07
vn -1 9.7917212e-15 2.24008446e-07
vn -0.980785251 8.52768345e-09 0.195090637
vn -0.980785191 8.52768434e-09 0.195090652
vn -0.923879325 1.67276468e-08 0.382683903
vn -0.831469297 2.42847715e-08 0.555570781
vn -0.831469178 2.42847751e-08 0.555570841
vn -0.707106352 3.0908641e-08 0.707107246
vn -0.555569828 3.6344705e-08 0.831469893
vn -0.38268286 4.0384073e-08 0.923879802
vn -0.38268286 4.03840694e-08 0.923879743
vn -0.19508934 4.28714984e-08 0.980785489
vn -0.195089355 4.28715019e-08 0.980785549
vn 9.05565912e-07 4.37113918e-08 1
vn 9.00799932e-07 4.37113883e-08 0.99999994
vn 0.195091382 4.28714841e-08 0.980785131
vn 0.195091337 4.28714841e-08 0.980785131
vn 0.382684529 4.0384041e-08 0.923879087
vn 0.555571198 3.63446659e-08 0.83146894
vn 0.707107723 3.09085806e-08 0.707105875
vn 0.707107782 3.09085806e-08 0.707105815
vn 0.831470311 2.4284704e-08 0.555569232
vn 0.831470311 2.42847076e-08 0.555569291
vn 0.9238801 1.67275669e-08 0.382682085
vn 0.980785549 8.52761506e-09 0.195089072
vn 0 -0.99999994 4.37113883e-08
vn 0 0.99999994 -4.37113883e-08
vn 0 1 -4.37113918e-08
vn 0.70710665 -3.09086232e-08 -0.707106829
vn 0.70710665 -3.09086268e-08 -0.707106888
vn 0.30085209 -4.16862811e-08 -0.953670859
vn 0.30085206 -4.16862775e-08 -0.9536708
vn 0 -4.37113918e-08 -1
vn 0 -4.37113883e-08 -0.99999994
vn 0.707106709 -3.09086232e-08 -0.707106829
vn -0.707106709 -3.09086197e-08 -0.707106709
vn -0.9536708 -1.31506663e-08 -0.30085215
vn -0.707106829 -3.09086197e-08 -0.707106769
vn -1 0 -0
vn -0.99999994 0 -0
vn -0.707106829 -3.09086161e-08 -0.70710665
vn -0.70710665 3.09086303e-08 0.707106948
vn -0.70710665 1.65183245e-08 0.707106948
vn -0.300851971 4.16862811e-08 0.953670859
vn -0.707106829 -9.45843581e-09 0.707106769
vn 0 4.37113918e-08 1
vn -0.707106709 -9.45842515e-09 0.707106829
vn 0.70710665 1.49205917e-07 0.707106829
vn 0.707106769 1.52045715e-07 0.707106769
vn 0.9536708 1.1217633e-07 0.30085215
vn 0.9536708 7.05066157e-08 0.300852239
vn 0.707106769 3.09086197e-08 0.707106709
vn 1 0 0
vn 0.707106829 3.09086197e-08 0.707106709
vn 0.0618254133 0.996170282 -0.0618254803
vn -0.0618254319 0.996170223 -0.0618254431
vn -0.0618253984 0.996170282 0.0618253835
vn 0.0618254058 0.996170223 0.0618253686
vn 0.13827081 0.98069483 -0.138270885
vn 0.095997341 0.993832409 -0.0555116534
vn 0.0882417485 0.995129347 -0.0439425297
vn 0.043942485 0.995129287 -0.0882418156
vn -0.0439424813 0.995129406 -0.0882418081
vn -0.0555116013 0.993832409 -0.0959973782
vn 0.055511605 0.993832409 -0.0959974155
vn -0.138270795 0.98069483 -0.13827081
vn -0.0882417336 0.995129347 -0.0439425111
vn -0.0882417634 0.995129406 0.0439424515
vn -0.095997341 0.993832409 0.0555115901
vn -0.0959973261 0.993832409 -0.0555116497
vn -0.138270766 0.98069483 0.13827078
vn -0.0439424478 0.995129347 0.0882416666
vn 0.0439424925 0.995129406 0.0882417262
vn 0.0555116422 0.993832409 0.0959972814
vn -0.0555115975 0.993832409 0.0959972665
vn 0.138270795 0.98069483 0.138270751
vn 0.0882417336 0.995129287 0.0439424105
vn 0.0959973037 0.993832409 0.0555115603
vn 0.953670681 -1.31506743e-08 -0.300852329
vn 0.953670681 -1.31506726e-08 -0.300852299
vn -1 3.46057428e-15 7.91687071e-08
vn -0.300852209 -4.1686274e-08 -0.95367074
vn -0.300852269 -4.16862775e-08 -0.9536708
vn 1.67133948e-07 4.37113918e-08 1
vn -0.95367074 -4.12921395e-08 0.300852239
vn -0.9536708 -2.64311915e-08 0.300852299
vn 1 1.0861892e-07 -1.75074319e-07
vn 1 1.14175265e-07 -1.75930481e-07
vn -1.67133933e-07 -4.37113918e-08 -1
vn 0.30085218 4.16862775e-08 0.9536708
vn 0.300852239 8.33364737e-08 0.9536708
vn 1 1.11365548e-08 -4.10718783e-08
vn 0.707107127 1.94464889e-09 -0.707106471
vn 0.707107127 1.50434687e-08 -0.707106471
vn 1 -1.11365566e-08 -7.18757889e-08
vn -6.93088339e-07 -1.94759835e-08 -1
vn -6.98222379e-07 -1.94760101e-08 -1
vn -0.707106352 1.52002855e-08 -0.707107186
vn -0.707106411 1.94467376e-09 -0.707107127
vn -1 -1.0979794e-08 3.08039496e-08
vn -1 1.09797949e-08 -2.0535964e-08
vn -0.707106352 -1.9446702e-09 0.707107186
vn -0.707106352 -1.52002926e-08 0.707107186
vn -6.93088282e-07 1.94760048e-08 0.99999994
vn -6.98222209e-07 1.94759799e-08 0.99999994
vn 0.707107067 -1.50434829e-08 0.707106531
vn 0.707107008 -1.94464533e-09 0.707106531
vn 1 1.34648262e-14 3.0803929e-07
vn 0.707107306 -3.09085948e-08 -0.707106173
vn 0.707107365 -3.09085948e-08 -0.707106173
vn 1 1.57089663e-14 3.59379214e-07
vn -4.62059262e-08 -4.37113918e-08 -1
vn -6.16078992e-08 -4.37113918e-08 -1
vn -0.707107425 -3.09085912e-08 -0.707106113
vn -0.707107425 -3.09085877e-08 -0.707105994
vn -1 2.17681369e-14 4.97996894e-07
vn -1 2.06460673e-14 4.72326917e-07
vn -0.707106054 3.09086587e-08 0.707107604
vn -0.707105935 3.09086587e-08 0.707107604
vn -8.21437709e-08 4.37113918e-08 1
vn -6.16078211e-08 4.37113918e-08 1
vn 0.707105935 3.09086587e-08 0.707107604
vn 1 1.11366489e-08 -4.10719281e-08
vn 0.707106411 1.9446702e-09 -0.707107127
vn 0.707106531 1.50434261e-08 -0.707107186
vn 1 -1.11366498e-08 -5.13399137e-08
vn 3.0803929e-07 -1.94759906e-08 -1
vn 3.08039318e-07 -1.94759817e-08 -1
vn -0.70710665 1.52003103e-08 -0.707106829
vn -0.707106769 1.94465954e-09 -0.707106829
vn -1 -1.09797478e-08 4.79940038e-16
vn -1 1.09797487e-08 -4.79940091e-16
vn -0.70710665 -1.94465954e-09 0.707106829
vn -0.70710659 -1.52003103e-08 0.707106948
vn 3.13173274e-07 1.94759817e-08 1
vn 3.08039262e-07 1.94759906e-08 1
vn 0.707106411 -1.50434296e-08 0.707107186
vn 0.707106352 -1.94466665e-09 0.707107186
vn 1 2.69296507e-15 6.16078566e-08
vn 0.707107306 -3.09085912e-08 -0.707106113
vn 0.99999994 4.48827427e-15 1.02679742e-07
vn -0.99999994 7.85448062e-15 1.7968955e-07
vn -0.99999994 5.38592888e-15 1.23215685e-07
vn -0.707106173 3.09086445e-08 0.707107306
vn -0.707106292 3.09086445e-08 0.707107306
vn 1.02679696e-08 4.37113918e-08 1
vn -2.05359392e-08 4.37113918e-08 1
vn 0.707106292 3.09086445e-08 0.707107306
vn 0.707106173 3.09086445e-08 0.707107306

# Mesh 'LPTable_1' with 362 faces
g LPTable_1
usemtl BarTableMat
f  1/1/1 2/2/2 3/3/3
f  4/3/3 5/4/4 6/1/1
f  7/2/2 8/5/5 9/6/6
f  10/6/6 11/3/3 12/2/2
f  13/5/5 14/7/7 15/8/8
f  16/8/8 17/6/6 18/5/5
f  19/7/7 20/9/9 21/10/10
f  22/10/10 23/8/8 24/7/7
f  25/9/9 26/11/11 27/12/12
f  28/12/12 29/10/10 30/9/9
f  31/11/11 32/13/13 33/14/14
f  34/14/14 35/12/12 36/11/11
f  37/13/13 38/15/15 39/16/16
f  40/16/16 41/14/14 42/13/13
f  43/15/15 44/17/17 45/18/18
f  46/18/18 47/16/16 48/15/15
f  49/17/17 50/19/19 51/20/20
f  52/20/20 53/18/18 54/17/17
f  55/19/19 56/21/21 57/22/22
f  58/22/22 59/20/20 60/19/19
f  61/21/21 62/23/23 63/24/24
f  64/24/24 65/22/22 66/21/21
f  67/23/23 68/25/1 69/26/4
f  70/26/4 71/24/24 72/23/23
f  73/27/25 74/28/26 75/29/27
f  76/29/27 77/30/28 78/27/25
f  79/31/29 80/32/30 81/33/31
f  82/33/31 83/34/32 84/31/29
f  85/32/30 86/35/33 87/36/34
f  88/36/34 89/33/31 90/32/30
f  91/35/33 92/37/35 93/38/36
f  94/38/36 95/36/34 96/35/33
f  97/39/35 98/31/29 99/34/32
f  100/34/32 101/40/36 102/39/35
f  103/41/37 104/42/37 105/43/38
f  106/43/38 107/44/39 108/41/37
f  109/42/37 110/45/37 111/46/40
f  112/46/40 113/43/38 114/42/37
f  115/45/37 116/47/37 117/48/41
f  118/48/41 119/46/40 120/45/37
f  121/47/37 122/41/37 123/44/39
f  124/44/39 125/48/41 126/47/37
f  127/44/39 128/43/38 129/28/26
f  130/28/26 131/27/25 132/44/39
f  133/43/38 134/46/40 135/29/27
f  136/29/27 137/28/26 138/43/38
f  139/46/40 140/48/41 141/30/28
f  142/30/28 143/29/27 144/46/40
f  145/48/41 146/44/39 147/27/25
f  148/27/25 149/30/28 150/48/41
f  151/49/42 152/50/43 153/51/43
f  154/51/43 155/52/44 156/49/42
f  157/50/43 158/53/45 159/54/46
f  160/54/46 161/51/43 162/50/43
f  163/53/45 164/55/47 165/56/47
f  166/56/47 167/54/46 168/53/45
f  169/55/47 170/57/34 171/58/34
f  172/58/34 173/56/47 174/55/47
f  175/57/34 176/59/48 177/60/49
f  178/60/49 179/58/34 180/57/34
f  181/59/48 182/61/50 183/62/50
f  184/62/50 185/60/49 186/59/48
f  187/61/50 188/63/51 189/64/52
f  190/64/52 191/62/50 192/61/50
f  193/63/51 194/65/53 195/66/54
f  196/66/54 197/64/52 198/63/51
f  199/65/53 200/67/55 201/68/56
f  202/68/56 203/66/54 204/65/53
f  205/67/55 206/69/57 207/70/57
f  208/70/57 209/68/56 210/67/55
f  211/69/57 212/71/58 213/72/58
f  214/72/58 215/70/57 216/69/57
f  217/71/58 218/73/59 219/74/59
f  220/74/59 221/72/58 222/71/58
f  223/73/59 224/75/60 225/76/60
f  226/76/60 227/74/59 228/73/59
f  229/75/60 230/77/61 231/78/62
f  232/78/62 233/76/60 234/75/60
f  235/79/61 236/80/63 237/81/64
f  238/81/64 239/82/62 240/79/61
f  241/80/63 242/83/65 243/84/66
f  244/84/66 245/81/64 246/80/63
f  247/83/65 248/85/67 249/86/68
f  250/86/68 251/84/66 252/83/65
f  253/85/67 254/87/69 255/88/69
f  256/88/69 257/86/68 258/85/67
f  259/87/69 260/89/70 261/90/71
f  262/90/71 263/88/69 264/87/69
f  265/89/70 266/91/72 267/92/72
f  268/92/72 269/90/71 270/89/70
f  271/91/72 272/93/73 273/94/73
f  274/94/73 275/92/72 276/91/72
f  277/93/73 278/95/74 279/96/75
f  280/96/75 281/94/73 282/93/73
f  283/95/74 284/97/76 285/98/77
f  286/98/77 287/96/75 288/95/74
f  289/97/76 290/99/78 291/100/79
f  292/100/79 293/98/77 294/97/76
f  295/99/78 296/101/80 297/102/81
f  298/102/81 299/100/79 300/99/78
f  301/101/80 302/103/82 303/104/82
f  304/104/82 305/102/81 306/101/80
f  307/103/82 308/105/83 309/106/83
f  310/106/83 311/104/82 312/103/82
f  313/105/83 314/107/84 315/108/85
f  316/108/85 317/106/83 318/105/83
f  319/107/84 320/109/86 321/110/87
f  322/110/87 323/108/85 324/107/84
f  325/109/86 326/111/88 327/112/88
f  328/112/88 329/110/87 330/109/86
f  331/111/88 332/113/89 333/114/89
f  334/114/89 335/112/88 336/111/88
f  337/113/89 338/49/42 339/52/44
f  340/52/44 341/114/89 342/113/89
f  343/115/37 344/116/37 345/117/37
f  346/117/37 347/118/90 348/119/37
f  349/119/37 350/120/37 351/121/37
f  352/117/37 353/119/37 354/121/37
f  355/121/37 356/122/90 357/123/37
f  358/123/37 359/124/37 360/125/37
f  361/121/37 362/123/37 363/125/37
f  364/125/37 365/126/90 366/127/90
f  367/127/90 368/128/37 369/129/37
f  370/125/37 371/127/90 372/129/37
f  373/121/37 374/125/37 375/129/37
f  376/129/37 377/130/37 378/131/37
f  379/131/37 380/132/37 381/133/90
f  382/129/37 383/131/37 384/133/90
f  385/133/90 386/134/90 387/135/37
f  388/135/37 389/136/37 390/137/37
f  391/133/90 392/135/37 393/137/37
f  394/129/37 395/133/90 396/137/37
f  397/137/37 398/138/37 399/139/37
f  400/139/37 401/140/37 402/141/37
f  403/137/37 404/139/37 405/141/37
f  406/141/37 407/142/90 408/143/37
f  409/143/37 410/144/37 411/145/37
f  412/141/37 413/143/37 414/145/37
f  415/137/37 416/141/37 417/145/37
f  418/129/37 419/137/37 420/145/37
f  421/121/37 422/129/37 423/145/37
f  424/117/37 425/121/37 426/145/37
f  427/115/37 428/117/37 429/145/37
f  430/146/37 431/115/37 432/145/37
f  433/147/91 434/148/91 435/149/92
f  436/149/92 437/150/92 438/151/92
f  439/151/92 440/152/91 441/153/92
f  442/149/92 443/151/92 444/153/92
f  445/153/92 446/154/91 447/155/91
f  448/155/91 449/156/91 450/157/92
f  451/153/92 452/155/91 453/157/92
f  454/157/92 455/158/92 456/159/92
f  457/159/92 458/160/92 459/161/92
f  460/157/92 461/159/92 462/161/92
f  463/153/92 464/157/92 465/161/92
f  466/161/92 467/162/91 468/163/92
f  469/163/92 470/164/91 471/165/92
f  472/161/92 473/163/92 474/165/92
f  475/165/92 476/166/91 477/167/92
f  478/167/92 479/168/92 480/169/92
f  481/165/92 482/167/92 483/169/92
f  484/161/92 485/165/92 486/169/92
f  487/169/92 488/170/92 489/171/92
f  490/171/92 491/172/92 492/173/92
f  493/169/92 494/171/92 495/173/92
f  496/173/92 497/174/92 498/175/92
f  499/175/92 500/176/92 501/177/91
f  502/173/92 503/175/92 504/177/91
f  505/169/92 506/173/92 507/177/91
f  508/161/92 509/169/92 510/177/91
f  511/153/92 512/161/92 513/177/91
f  514/149/92 515/153/92 516/177/91
f  517/147/91 518/149/92 519/177/91
f  520/178/92 521/147/91 522/177/91
f  523/179/93 524/180/94 525/181/95
f  526/181/95 527/182/96 528/179/93
f  529/183/93 530/184/97 531/185/98
f  532/185/98 533/186/99 534/183/93
f  535/187/100 536/188/100 537/189/101
f  538/189/101 539/190/101 540/187/100
f  541/191/102 542/192/103 543/193/104
f  544/193/104 545/194/105 546/191/102
f  547/195/106 548/196/107 549/197/108
f  550/197/108 551/198/108 552/195/106
f  553/199/109 554/200/110 555/201/110
f  556/201/110 557/202/111 558/199/109
f  559/203/112 560/204/113 561/205/114
f  562/205/114 563/206/115 564/203/112
f  565/207/116 566/208/117 567/209/117
f  568/209/117 569/210/118 570/207/116
f  571/211/37 572/212/37 573/213/37
f  574/213/37 575/214/37 576/211/37
f  577/215/119 578/216/120 579/217/121
f  580/217/121 581/218/122 582/215/119
f  583/219/123 584/215/119 585/220/124
f  586/220/124 587/221/125 588/219/123
f  589/222/126 590/223/127 591/224/128
f  592/224/128 593/225/129 594/222/126
f  595/226/130 596/216/120 597/224/128
f  598/224/128 599/223/127 600/226/130
f  601/227/131 602/228/132 603/229/133
f  604/229/133 605/230/134 606/227/131
f  607/231/135 608/217/121 609/229/133
f  610/229/133 611/228/132 612/231/135
f  613/232/136 614/233/137 615/234/138
f  616/234/138 617/235/139 618/232/136
f  619/236/140 620/218/122 621/234/138
f  622/234/138 623/233/137 624/236/140
f  625/237/141 626/221/125 627/220/124
f  628/220/124 629/238/142 630/237/141
f  631/239/143 632/240/144 633/183/93
f  634/183/93 635/186/99 636/239/143
f  637/241/37 638/242/37 639/243/37
f  640/243/37 641/244/37 642/241/37
f  643/190/101 644/189/101 645/245/145
f  646/245/145 647/246/145 648/190/101
f  649/223/127 650/222/126 651/247/92
f  652/247/92 653/248/92 654/223/127
f  655/249/146 656/250/147 657/191/102
f  658/191/102 659/194/105 660/249/146
f  661/251/37 662/252/37 663/253/37
f  664/253/37 665/254/90 666/251/37
f  667/198/108 668/197/108 669/255/148
f  670/255/148 671/256/148 672/198/108
f  673/228/132 674/227/131 675/257/92
f  676/257/92 677/258/92 678/228/132
f  679/259/149 680/260/150 681/199/109
f  682/199/109 683/202/111 684/259/149
f  685/261/37 686/262/37 687/263/90
f  688/263/90 689/264/90 690/261/37
f  691/206/115 692/205/114 693/265/151
f  694/265/151 695/266/152 696/206/115
f  697/233/137 698/232/136 699/267/91
f  700/267/91 701/268/92 702/233/137
f  703/182/96 704/181/95 705/269/153
f  706/269/153 707/270/153 708/182/96
f  709/221/125 710/237/141 711/271/92
f  712/271/92 713/272/92 714/221/125
f  715/273/154 716/274/155 717/207/116
f  718/207/116 719/210/118 720/273/154
f  721/275/37 722/276/37 723/277/37
f  724/277/37 725/278/90 726/275/37
f  727/240/144 728/239/143 729/180/94
f  730/180/94 731/179/93 732/240/144
f  733/250/147 734/249/146 735/188/100
f  736/188/100 737/187/100 738/250/147
f  739/260/150 740/259/149 741/196/107
f  742/196/107 743/195/106 744/260/150
f  745/274/155 746/273/154 747/204/113
f  748/204/113 749/203/112 750/274/155
f  751/279/37 752/280/37 753/214/37
f  754/214/37 755/213/37 756/279/37
f  757/252/37 758/251/37 759/213/37
f  760/213/37 761/212/37 762/252/37
f  763/281/90 764/282/37 765/212/37
f  766/212/37 767/211/37 768/281/90
f  769/211/37 770/214/37 771/276/37
f  772/276/37 773/275/37 774/211/37
f  775/235/139 776/234/138 777/218/122
f  778/218/122 779/217/121 780/235/139
f  781/230/134 782/229/133 783/217/121
f  784/217/121 785/216/120 786/230/134
f  787/225/129 788/224/128 789/216/120
f  790/216/120 791/215/119 792/225/129
f  793/215/119 794/218/122 795/238/142
f  796/238/142 797/220/124 798/215/119
f  799/219/123 800/222/126 801/225/129
f  802/225/129 803/215/119 804/219/123
f  805/226/130 806/227/131 807/230/134
f  808/230/134 809/216/120 810/226/130
f  811/231/135 812/232/136 813/235/139
f  814/235/139 815/217/121 816/231/135
f  817/236/140 818/237/141 819/238/142
f  820/238/142 821/218/122 822/236/140
f  823/283/156 824/284/157 825/285/158
f  826/285/158 827/286/159 828/283/156
f  829/284/157 830/287/160 831/288/161
f  832/288/161 833/285/158 834/284/157
f  835/287/160 836/289/162 837/290/163
f  838/290/163 839/288/161 840/287/160
f  841/289/162 842/291/164 843/292/165
f  844/292/165 845/290/163 846/289/162
f  847/293/164 848/294/166 849/295/167
f  850/295/167 851/296/165 852/293/164
f  853/294/166 854/297/168 855/298/169
f  856/298/169 857/295/167 858/294/166
f  859/297/168 860/299/170 861/300/171
f  862/300/171 863/298/169 864/297/168
f  865/299/170 866/283/156 867/286/159
f  868/286/159 869/300/171 870/299/170
f  871/301/37 872/302/37 873/303/37
f  874/303/37 875/304/37 876/305/37
f  877/305/37 878/306/37 879/307/37
f  880/303/37 881/305/37 882/307/37
f  883/301/37 884/303/37 885/307/37
f  886/308/90 887/301/37 888/307/37
f  889/309/172 890/310/173 891/311/174
f  892/311/174 893/312/175 894/309/172
f  895/310/173 896/313/176 897/314/177
f  898/314/177 899/311/174 900/310/173
f  901/315/176 902/316/178 903/317/179
f  904/317/179 905/318/177 906/315/176
f  907/316/178 908/319/180 909/320/181
f  910/320/181 911/317/179 912/316/178
f  913/319/180 914/321/182 915/322/183
f  916/322/183 917/320/181 918/319/180
f  919/321/182 920/323/184 921/324/185
f  922/324/185 923/322/183 924/321/182
f  925/323/184 926/325/186 927/326/186
f  928/326/186 929/324/185 930/323/184
f  931/325/186 932/309/172 933/312/175
f  934/312/175 935/326/186 936/325/186
f  937/327/37 938/328/37 939/329/37
f  940/329/37 941/330/37 942/331/37
f  943/331/37 944/332/37 945/333/37
f  946/329/37 947/331/37 948/333/37
f  949/327/37 950/329/37 951/333/37
f  952/334/37 953/327/37 954/333/37
f  955/335/187 956/336/188 957/337/189
f  958/337/189 959/338/190 960/335/187
f  961/336/188 962/339/191 963/340/192
f  964/340/192 965/337/189 966/336/188
f  967/339/191 968/341/193 969/342/194
f  970/342/194 971/340/192 972/339/191
f  973/341/193 974/343/195 975/344/196
f  976/344/196 977/342/194 978/341/193
f  979/343/195 980/345/197 981/346/198
f  982/346/198 983/344/196 984/343/195
f  985/345/197 986/347/199 987/348/200
f  988/348/200 989/346/198 990/345/197
f  991/347/199 992/349/201 993/350/202
f  994/350/202 995/348/200 996/347/199
f  997/349/201 998/351/187 999/352/190
f  1000/352/190 1001/350/202 1002/349/201
f  1003/353/37 1004/354/37 1005/355/37
f  1006/355/37 1007/356/37 1008/357/37
f  1009/357/37 1010/358/37 1011/359/90
f  1012/355/37 1013/357/37 1014/359/90
f  1015/353/37 1016/355/37 1017/359/90
f  1018/360/37 1019/353/37 1020/359/90
f  1021/361/203 1022/362/204 1023/363/173
f  1024/363/173 1025/364/205 1026/361/203
f  1027/362/204 1028/365/97 1029/366/97
f  1030/366/97 1031/363/173 1032/362/204
f  1033/367/97 1034/368/179 1035/369/179
f  1036/369/179 1037/370/97 1038/367/97
f  1039/368/179 1040/371/206 1041/372/207
f  1042/372/207 1043/369/179 1044/368/179
f  1045/371/206 1046/373/208 1047/374/209
f  1048/374/209 1049/372/207 1050/371/206
f  1051/373/208 1052/375/210 1053/376/211
f  1054/376/211 1055/374/209 1056/373/208
f  1057/375/210 1058/377/212 1059/378/213
f  1060/378/213 1061/376/211 1062/375/210
f  1063/377/212 1064/361/203 1065/364/205
f  1066/364/205 1067/378/213 1068/377/212
f  1069/379/37 1070/380/37 1071/381/37
f  1072/381/37 1073/382/90 1074/383/37
f  1075/383/37 1076/384/90 1077/385/37
f  1078/381/37 1079/383/37 1080/385/37
f  1081/379/37 1082/381/37 1083/385/37
f  1084/386/37 1085/379/37 1086/385/37

